<svg xmlns="http://www.w3.org/2000/svg" width="1080" height="1920" viewBox="0 0 1080 1920">
  <defs>
    <linearGradient id="bg" x1="0" y="0" x2="0" y="1">
      <stop offset="0" stop-color="#0e1318"/>
      <stop offset="1" stop-color="#0a0d10"/>
    </linearGradient>
    <linearGradient id="card" x1="0" y1="0" x2="0" y2="1">
      <stop offset="0" stop-color="#1a2129"/>
      <stop offset="1" stop-color="#141a20"/>
    </linearGradient>
  </defs>
  <rect x="60" y="60" rx="72" width="960" height="1800" fill="url(#bg)" stroke="#1d232b" stroke-width="6"/>
  <g transform="translate(100,160)">
    <rect width="880" height="1600" rx="28" fill="#0f1419"/>
    <!-- Header -->
    <rect x="0" y="0" width="880" height="96" rx="24" fill="#131a21"/>
    <text x="440" y="62" text-anchor="middle" fill="#e8eef5" font-size="36" font-weight="600">Profile</text>
    <!-- Profile card -->
    <g transform="translate(24,128)">
      <rect width="832" height="320" rx="24" fill="url(#card)" stroke="#232a33"/>
      <circle cx="120" cy="160" r="64" fill="#2a313a"/>
      <text x="220" y="140" fill="#e8eef5" font-size="36" font-weight="600">Aurora</text>
      <text x="220" y="176" fill="#8fa0b3" font-size="24">@aurora • Verified</text>
      <rect x="220" y="210" width="180" height="52" rx="14" fill="#2a313a"/>
      <text x="240" y="244" fill="#cfd7e3" font-size="24">Follow</text>
      <rect x="412" y="210" width="180" height="52" rx="14" fill="#2a313a"/>
      <text x="432" y="244" fill="#cfd7e3" font-size="24">Message</text>
    </g>
    <!-- Posts grid -->
    <g transform="translate(24,476)">
      <rect width="832" height="976" rx="24" fill="#121820" stroke="#202732"/>
      <!-- 3x3 grid placeholders -->
      <g transform="translate(16,16)">
        <rect width="256" height="300" rx="18" fill="#1a2129" stroke="#232a33"/>
        <rect x="272" width="256" height="300" rx="18" fill="#1a2129" stroke="#232a33"/>
        <rect x="544" width="256" height="300" rx="18" fill="#1a2129" stroke="#232a33"/>
        <rect y="316" width="256" height="300" rx="18" fill="#1a2129" stroke="#232a33"/>
        <rect x="272" y="316" width="256" height="300" rx="18" fill="#1a2129" stroke="#232a33"/>
        <rect x="544" y="316" width="256" height="300" rx="18" fill="#1a2129" stroke="#232a33"/>
        <rect y="632" width="256" height="300" rx="18" fill="#1a2129" stroke="#232a33"/>
        <rect x="272" y="632" width="256" height="300" rx="18" fill="#1a2129" stroke="#232a33"/>
        <rect x="544" y="632" width="256" height="300" rx="18" fill="#1a2129" stroke="#232a33"/>
      </g>
    </g>
    <!-- Bottom nav -->
    <g transform="translate(0,1515)">
      <rect x="0" y="0" width="880" height="85" rx="24" fill="#121820" stroke="#202732"/>
      <circle cx="92" cy="42" r="22" fill="#2a313a"/>
      <circle cx="264" cy="42" r="22" fill="#2a313a"/>
      <rect x="410" y="22" width="60" height="40" rx="10" fill="#2a313a"/>
      <circle cx="616" cy="42" r="22" fill="#2a313a"/>
      <circle cx="788" cy="42" r="22" fill="#3a99ff"/>
    </g>
  </g>
</svg>